<svg width="304" height="55" viewBox="0 0 304 55" fill="none" xmlns="http://www.w3.org/2000/svg">
<path d="M37.616 19.296C37.616 21.984 36.968 24.504 35.672 26.856C34.424 29.208 32.432 31.104 29.696 32.544C27.008 33.984 23.6 34.704 19.472 34.704H11.048V54H0.968V3.744H19.472C23.36 3.744 26.672 4.416 29.408 5.76C32.144 7.104 34.184 8.952 35.528 11.304C36.92 13.656 37.616 16.32 37.616 19.296ZM19.04 26.568C21.824 26.568 23.888 25.944 25.232 24.696C26.576 23.4 27.248 21.6 27.248 19.296C27.248 14.4 24.512 11.952 19.04 11.952H11.048V26.568H19.04ZM62.4847 54.648C58.6447 54.648 55.1887 53.808 52.1167 52.128C49.0447 50.4 46.6207 47.976 44.8447 44.856C43.1167 41.736 42.2527 38.136 42.2527 34.056C42.2527 29.976 43.1407 26.376 44.9167 23.256C46.7407 20.136 49.2127 17.736 52.3327 16.056C55.4527 14.328 58.9327 13.464 62.7727 13.464C66.6127 13.464 70.0927 14.328 73.2127 16.056C76.3327 17.736 78.7807 20.136 80.5567 23.256C82.3807 26.376 83.2927 29.976 83.2927 34.056C83.2927 38.136 82.3567 41.736 80.4847 44.856C78.6607 47.976 76.1647 50.4 72.9967 52.128C69.8767 53.808 66.3727 54.648 62.4847 54.648ZM62.4847 45.864C64.3087 45.864 66.0127 45.432 67.5967 44.568C69.2287 43.656 70.5247 42.312 71.4847 40.536C72.4447 38.76 72.9247 36.6 72.9247 34.056C72.9247 30.264 71.9167 27.36 69.9007 25.344C67.9327 23.28 65.5087 22.248 62.6287 22.248C59.7487 22.248 57.3247 23.28 55.3567 25.344C53.4367 27.36 52.4767 30.264 52.4767 34.056C52.4767 37.848 53.4127 40.776 55.2847 42.84C57.2047 44.856 59.6047 45.864 62.4847 45.864ZM114.303 54L100.767 37.008V54H90.6868V0.719999H100.767V31.032L114.159 14.112H127.263L109.695 34.128L127.407 54H114.303ZM169.814 33.192C169.814 34.632 169.718 35.928 169.526 37.08H140.366C140.606 39.96 141.614 42.216 143.39 43.848C145.166 45.48 147.35 46.296 149.942 46.296C153.686 46.296 156.35 44.688 157.934 41.472H168.806C167.654 45.312 165.446 48.48 162.182 50.976C158.918 53.424 154.91 54.648 150.158 54.648C146.318 54.648 142.862 53.808 139.79 52.128C136.766 50.4 134.39 47.976 132.662 44.856C130.982 41.736 130.142 38.136 130.142 34.056C130.142 29.928 130.982 26.304 132.662 23.184C134.342 20.064 136.694 17.664 139.718 15.984C142.742 14.304 146.222 13.464 150.158 13.464C153.95 13.464 157.334 14.28 160.31 15.912C163.334 17.544 165.662 19.872 167.294 22.896C168.974 25.872 169.814 29.304 169.814 33.192ZM159.374 30.312C159.326 27.72 158.39 25.656 156.566 24.12C154.742 22.536 152.51 21.744 149.87 21.744C147.374 21.744 145.262 22.512 143.534 24.048C141.854 25.536 140.822 27.624 140.438 30.312H159.374ZM174.579 33.912C174.579 29.88 175.371 26.304 176.955 23.184C178.587 20.064 180.795 17.664 183.579 15.984C186.363 14.304 189.459 13.464 192.867 13.464C195.459 13.464 197.931 14.04 200.283 15.192C202.635 16.296 204.507 17.784 205.899 19.656V0.719999H216.123V54H205.899V48.096C204.651 50.064 202.899 51.648 200.643 52.848C198.387 54.048 195.771 54.648 192.795 54.648C189.435 54.648 186.363 53.784 183.579 52.056C180.795 50.328 178.587 47.904 176.955 44.784C175.371 41.616 174.579 37.992 174.579 33.912ZM205.971 34.056C205.971 31.608 205.491 29.52 204.531 27.792C203.571 26.016 202.275 24.672 200.643 23.76C199.011 22.8 197.259 22.32 195.387 22.32C193.515 22.32 191.787 22.776 190.203 23.688C188.619 24.6 187.323 25.944 186.315 27.72C185.355 29.448 184.875 31.512 184.875 33.912C184.875 36.312 185.355 38.424 186.315 40.248C187.323 42.024 188.619 43.392 190.203 44.352C191.835 45.312 193.563 45.792 195.387 45.792C197.259 45.792 199.011 45.336 200.643 44.424C202.275 43.464 203.571 42.12 204.531 40.392C205.491 38.616 205.971 36.504 205.971 34.056ZM263.048 33.192C263.048 34.632 262.952 35.928 262.76 37.08H233.6C233.84 39.96 234.848 42.216 236.624 43.848C238.4 45.48 240.584 46.296 243.176 46.296C246.92 46.296 249.584 44.688 251.168 41.472H262.04C260.888 45.312 258.68 48.48 255.416 50.976C252.152 53.424 248.144 54.648 243.392 54.648C239.552 54.648 236.096 53.808 233.024 52.128C230 50.4 227.624 47.976 225.896 44.856C224.216 41.736 223.376 38.136 223.376 34.056C223.376 29.928 224.216 26.304 225.896 23.184C227.576 20.064 229.928 17.664 232.952 15.984C235.976 14.304 239.456 13.464 243.392 13.464C247.184 13.464 250.568 14.28 253.544 15.912C256.568 17.544 258.896 19.872 260.528 22.896C262.208 25.872 263.048 29.304 263.048 33.192ZM252.608 30.312C252.56 27.72 251.624 25.656 249.8 24.12C247.976 22.536 245.744 21.744 243.104 21.744C240.608 21.744 238.496 22.512 236.768 24.048C235.088 25.536 234.056 27.624 233.672 30.312H252.608ZM292.438 54L284.23 41.616L276.958 54H266.158L279.19 33.984L266.014 14.112H277.39L285.526 26.424L292.87 14.112H303.67L290.566 33.984L303.814 54H292.438Z" fill="white"/>
</svg>
