<svg width="24" height="34" viewBox="0 0 24 34" fill="none" xmlns="http://www.w3.org/2000/svg">
<path d="M16.536 16.672C18.424 17.024 20.024 17.984 21.336 19.552C22.648 21.12 23.304 22.944 23.304 25.024C23.304 26.72 22.872 28.256 22.008 29.632C21.176 30.976 19.944 32.048 18.312 32.848C16.68 33.616 14.728 34 12.456 34H0.84V0.447997H12.12C15.512 0.447997 18.088 1.232 19.848 2.8C21.64 4.368 22.536 6.4 22.536 8.896C22.536 10.976 21.976 12.672 20.856 13.984C19.736 15.264 18.296 16.16 16.536 16.672ZM4.2 15.28H12.024C14.296 15.28 16.04 14.752 17.256 13.696C18.504 12.608 19.128 11.12 19.128 9.232C19.128 7.376 18.504 5.92 17.256 4.864C16.04 3.808 14.248 3.28 11.88 3.28H4.2V15.28ZM12.216 31.168C14.648 31.168 16.536 30.592 17.88 29.44C19.256 28.288 19.944 26.704 19.944 24.688C19.944 22.672 19.224 21.072 17.784 19.888C16.376 18.672 14.472 18.064 12.072 18.064H4.2V31.168H12.216Z" fill="white"/>
</svg>
