<svg width="45" height="45" viewBox="0 0 45 45" fill="#FFFFFF" xmlns="http://www.w3.org/2000/svg">
<path d="M39.9212 8.64717C38.9635 7.68906 37.8264 6.92901 36.575 6.41046C35.3235 5.8919 33.9821 5.625 32.6274 5.625C31.2728 5.625 29.9314 5.8919 28.6799 6.41046C27.4284 6.92901 26.2913 7.68906 25.3337 8.64717L23.3462 10.6347L21.3587 8.64717C19.4242 6.71275 16.8006 5.626 14.0649 5.626C11.3292 5.626 8.70559 6.71275 6.77117 8.64717C4.83675 10.5816 3.75 13.2052 3.75 15.9409C3.75 18.6766 4.83675 21.3002 6.77117 23.2347L8.75867 25.2222L23.3462 39.8097L37.9337 25.2222L39.9212 23.2347C40.8793 22.277 41.6393 21.1399 42.1579 19.8885C42.6764 18.637 42.9433 17.2956 42.9433 15.9409C42.9433 14.5863 42.6764 13.2449 42.1579 11.9934C41.6393 10.7419 40.8793 9.60484 39.9212 8.64717V8.64717Z" stroke="white" stroke-width="4" stroke-linecap="round" stroke-linejoin="round"/>
</svg>
