<svg width="26" height="26" viewBox="0 0 26 26" fill="none" xmlns="http://www.w3.org/2000/svg">
<path d="M23.7846 26L14.837 17.0513C10.8566 19.881 5.37181 19.1889 2.2193 15.4591C-0.933219 11.7293 -0.701739 6.20616 2.75181 2.75322C6.20446 -0.701244 11.7284 -0.933713 15.4592 2.21845C19.1899 5.37061 19.8824 10.8556 17.0524 14.8361L26 23.7848L23.7862 25.9984L23.7846 26ZM9.39326 3.13205C6.42434 3.13139 3.86293 5.21531 3.25982 8.12215C2.65671 11.029 4.17766 13.9598 6.90182 15.1402C9.62598 16.3205 12.8046 15.426 14.5133 12.9982C16.2219 10.5704 15.991 7.27657 13.9602 5.11093L14.9074 6.05025L13.8397 4.98568L13.8209 4.9669C12.6495 3.78832 11.055 3.12758 9.39326 3.13205Z" fill="#545454"/>
</svg>
