<svg width="48" height="51" viewBox="0 0 48 51" fill="none" xmlns="http://www.w3.org/2000/svg">
<path d="M19.0074 4.73521C18.0901 8.57443 17.9653 12.5547 18.6405 16.4419C19.3157 20.3291 20.7771 24.0446 22.9389 27.37C25.1006 30.6953 27.919 33.5632 31.2282 35.8051C34.5375 38.0469 38.2706 39.6173 42.2082 40.4239C40.138 42.5235 37.6587 44.1941 34.9172 45.3364C32.1758 46.4787 29.2282 47.0694 26.2494 47.0736C25.9732 47.0736 25.6931 47.0834 25.4129 47.0736C20.2268 46.8945 15.2686 44.9402 11.3996 41.5502C7.53065 38.1602 4.99542 33.5487 4.23438 28.517C3.47334 23.4852 4.53458 18.351 7.23374 14.0065C9.9329 9.66196 14.0994 6.38156 19.0094 4.73521H19.0074ZM21.965 0C21.8476 0.000388281 21.7304 0.0108904 21.6148 0.0313851C15.2446 1.14265 9.51889 4.52471 5.54019 9.52639C1.56149 14.5281 -0.388931 20.7957 0.0644535 27.1227C0.517838 33.4496 3.34297 39.3885 7.99592 43.7958C12.6489 48.2031 18.8007 50.7674 25.2669 50.9948C25.595 51.0065 25.9232 50.9948 26.2474 50.9948C30.4476 50.9975 34.5867 50.0087 38.3147 48.112C42.0426 46.2154 45.2499 43.4667 47.6652 40.0983C47.8609 39.808 47.9751 39.4723 47.9964 39.1249C48.0176 38.7776 47.9452 38.4309 47.7864 38.1197C47.6276 37.8085 47.3879 37.5438 47.0916 37.3522C46.7953 37.1607 46.4527 37.049 46.0983 37.0284C42.1006 36.6845 38.2372 35.4441 34.8065 33.4032C31.3758 31.3622 28.4699 28.5753 26.3132 25.2579C24.1566 21.9404 22.807 18.1813 22.3688 14.2711C21.9306 10.3608 22.4155 6.4042 23.786 2.70696C23.9026 2.41102 23.9454 2.09205 23.9108 1.77663C23.8761 1.46121 23.7651 1.15847 23.587 0.893627C23.4088 0.628783 23.1686 0.409506 22.8865 0.254064C22.6044 0.0986223 22.2885 0.0115153 21.965 0Z" fill="white"/>
</svg>
